<?xml version="1.0" encoding="UTF-8" standalone="no"?>
<svg
   id="svg11024"
   height="32"
   width="32"
   version="1.1"
   sodipodi:docname="crosshair.svg"
   inkscape:version="1.4.3 (0d15f75042, 2025-12-25)"
   xmlns:inkscape="http://www.inkscape.org/namespaces/inkscape"
   xmlns:sodipodi="http://sodipodi.sourceforge.net/DTD/sodipodi-0.dtd"
   xmlns="http://www.w3.org/2000/svg"
   xmlns:svg="http://www.w3.org/2000/svg">
  <defs
     id="defs1">
    <inkscape:path-effect
       effect="powerstroke"
       message=""
       id="path-effect24"
       is_visible="true"
       lpeversion="1.3"
       scale_width="1"
       interpolator_type="CubicBezierJohan"
       interpolator_beta="0.2"
       start_linecap_type="zerowidth"
       end_linecap_type="zerowidth"
       offset_points="6,4.9921368"
       linejoin_type="extrp_arc"
       miter_limit="4"
       not_jump="false"
       sort_points="true" />
    <inkscape:path-effect
       effect="fillet_chamfer"
       id="path-effect1"
       is_visible="true"
       lpeversion="1"
       nodesatellites_param="F,0,0,1,0,4.8962148,0,1 @ F,0,0,1,0,0,0,1 @ F,0,0,1,0,0,0,1 @ F,0,0,1,0,0,0,1 @ F,0,0,1,0,0,0,1 @ F,0,0,1,0,0,0,1"
       radius="0"
       unit="px"
       method="auto"
       mode="F"
       chamfer_steps="1"
       flexible="false"
       use_knot_distance="true"
       apply_no_radius="true"
       apply_with_radius="true"
       only_selected="false"
       hide_knots="false" />
  </defs>
  <sodipodi:namedview
     id="namedview1"
     pagecolor="#ffffff"
     bordercolor="#999999"
     borderopacity="1"
     inkscape:showpageshadow="2"
     inkscape:pageopacity="0"
     inkscape:pagecheckerboard="0"
     inkscape:deskcolor="#d1d1d1"
     inkscape:zoom="5.6568542"
     inkscape:cx="12.374369"
     inkscape:cy="9.9878833"
     inkscape:window-width="1906"
     inkscape:window-height="1027"
     inkscape:window-x="0"
     inkscape:window-y="0"
     inkscape:window-maximized="1"
     inkscape:current-layer="svg11024" />
  <filter
     id="filter7078"
     color-interpolation-filters="sRGB"
     x="-0.11785656"
     y="-0.078292553"
     width="1.2357131"
     height="1.1565851">
    <feGaussianBlur
       id="feGaussianBlur7080"
       stdDeviation=".657" />
  </filter>
  <path
     id="hotspot"
     d="m 16.5,15.5 v 1 h -1 v -1 z"
     display="none"
     fill="#333333" />
  <circle
     style="fill:none;fill-opacity:1;stroke:#484a46;stroke-width:1.656;stroke-linecap:round;stroke-linejoin:round;stroke-dasharray:none;stroke-opacity:1;paint-order:markers fill stroke"
     id="circle6"
     cx="-16"
     cy="42.958447"
     transform="rotate(-90)"
     r="2.105" />
  <circle
     style="fill:#d2e3eb;fill-opacity:1;stroke:none;stroke-width:0.242606;stroke-linecap:round;stroke-linejoin:round;paint-order:markers fill stroke"
     id="path3"
     cx="-16"
     cy="42.958447"
     transform="rotate(-90)"
     r="2.105" />
  <g
     id="g1"
     transform="matrix(0.66098471,0,0,0.66098471,2.595566,-25.643012)">
    <path
       id="path7"
       style="fill:none;fill-opacity:1;stroke:#484a46;stroke-width:2.50535;stroke-linecap:round;stroke-linejoin:round;stroke-dasharray:none;stroke-opacity:1;paint-order:markers fill stroke"
       inkscape:transform-center-y="-5.1009491"
       d="m 2.1170622,15.534416 4.6202056,2.569746 3.5322312,1.964248 a 0.72547507,0.69885184 0 0 0 1.087974,-0.605498 v -3.928496 -3.928494 a 0.72547507,0.69885184 0 0 0 -1.087974,-0.605499 l -3.5322312,1.964248 z" />
    <path
       id="path6"
       style="fill:#fbfcfd;fill-opacity:1;stroke:none;stroke-width:0.223675;stroke-linecap:round;stroke-linejoin:round;paint-order:markers fill stroke"
       inkscape:transform-center-y="-5.1009491"
       d="m 2.1170622,15.534416 4.6202056,2.569746 3.5322312,1.964248 a 0.72547507,0.69885184 0 0 0 1.087974,-0.605498 v -3.928496 -3.928494 a 0.72547507,0.69885184 0 0 0 -1.087974,-0.605499 l -3.5322312,1.964248 z" />
    <g
       id="g3"
       transform="matrix(0,-0.24722093,0.30192026,0,8.088243,29.871299)">
      <path
         id="path1"
         style="opacity:1;fill:#fbfcfd;fill-opacity:1;stroke:none;stroke-width:0.888;stroke-linecap:round;stroke-linejoin:round;paint-order:markers fill stroke"
         inkscape:transform-center-y="-5.1009491"
         d="M 57.992188,-25.177338 V 10.828148 H 73.882812 A 2.8268312,2.8268312 0 0 0 76.332031,6.5888296 L 68.386719,-7.1745949 Z"
         transform="matrix(1,0,0,0.85002237,0,1.6239568)" />
      <path
         id="path2"
         style="opacity:1;fill:#d2e3eb;fill-opacity:1;stroke:none;stroke-width:0.818706;stroke-linecap:round;stroke-linejoin:round;paint-order:markers fill stroke"
         inkscape:transform-center-y="-5.1009492"
         d="M 57.992188,-19.777344 V 10.828125 H 42.101564 A 2.8268312,2.4028698 0 0 1 39.652345,7.2246094 l 7.945312,-11.6992188 z" />
    </g>
  </g>
  <g
     id="g14"
     transform="matrix(-0.66098471,0,0,0.66098471,29.404434,-25.643012)">
    <path
       id="path10"
       style="fill:none;fill-opacity:1;stroke:#484a46;stroke-width:2.50535;stroke-linecap:round;stroke-linejoin:round;stroke-dasharray:none;stroke-opacity:1;paint-order:markers fill stroke"
       inkscape:transform-center-y="-5.1009491"
       d="m 2.1170622,15.534416 4.6202056,2.569746 3.5322312,1.964248 a 0.72547507,0.69885184 0 0 0 1.087974,-0.605498 v -3.928496 -3.928494 a 0.72547507,0.69885184 0 0 0 -1.087974,-0.605499 l -3.5322312,1.964248 z" />
    <path
       id="path11"
       style="fill:#fbfcfd;fill-opacity:1;stroke:none;stroke-width:0.223675;stroke-linecap:round;stroke-linejoin:round;paint-order:markers fill stroke"
       inkscape:transform-center-y="-5.1009491"
       d="m 2.1170622,15.534416 4.6202056,2.569746 3.5322312,1.964248 a 0.72547507,0.69885184 0 0 0 1.087974,-0.605498 v -3.928496 -3.928494 a 0.72547507,0.69885184 0 0 0 -1.087974,-0.605499 l -3.5322312,1.964248 z" />
    <g
       id="g13"
       transform="matrix(0,-0.24722093,0.30192026,0,8.088243,29.871299)">
      <path
         id="path12"
         style="opacity:1;fill:#fbfcfd;fill-opacity:1;stroke:none;stroke-width:0.888;stroke-linecap:round;stroke-linejoin:round;paint-order:markers fill stroke"
         inkscape:transform-center-y="-5.1009491"
         d="M 57.992188,-25.177338 V 10.828148 H 73.882812 A 2.8268312,2.8268312 0 0 0 76.332031,6.5888296 L 68.386719,-7.1745949 Z"
         transform="matrix(1,0,0,0.85002237,0,1.6239568)" />
      <path
         id="path13"
         style="opacity:1;fill:#d2e3eb;fill-opacity:1;stroke:none;stroke-width:0.818706;stroke-linecap:round;stroke-linejoin:round;paint-order:markers fill stroke"
         inkscape:transform-center-y="-5.1009492"
         d="M 57.992188,-19.777344 V 10.828125 H 42.101564 A 2.8268312,2.4028698 0 0 1 39.652345,7.2246094 l 7.945312,-11.6992188 z" />
    </g>
  </g>
  <g
     id="g35"
     transform="matrix(0,-0.92454596,-0.92454596,0,66.969686,48.310912)">
    <g
       id="g34"
       transform="matrix(1.6734204,0,0,1.6734204,-9.2421899,-14.870431)">
      <rect
         style="fill:none;fill-opacity:1;stroke:#484a46;stroke-width:1.739;stroke-linecap:round;stroke-linejoin:round;stroke-dasharray:none;stroke-opacity:1;paint-order:markers fill stroke"
         id="rect32"
         width="1.7456694"
         height="5.4358835"
         x="12.904698"
         y="19.887379"
         ry="0.6408155" />
      <rect
         style="fill:#fbfcfd;fill-opacity:1;stroke:none;stroke-width:1.739;stroke-linecap:round;stroke-linejoin:round;stroke-dasharray:none;stroke-opacity:1;paint-order:markers fill stroke"
         id="rect31"
         width="1.7456694"
         height="5.4358835"
         x="12.904698"
         y="19.887379"
         ry="0.6408155" />
      <path
         id="rect33"
         style="fill:#d2e3eb;fill-opacity:1;stroke:none;stroke-width:1.739;stroke-linecap:round;stroke-linejoin:round;stroke-dasharray:none;stroke-opacity:1;paint-order:markers fill stroke"
         d="m 13.545323,19.887546 c -0.355012,0 -0.640625,0.285613 -0.640625,0.640625 v 4.154297 c 0,0.355011 0.285613,0.642578 0.640625,0.642578 h 0.330078 v -5.4375 z" />
    </g>
    <g
       id="g19"
       transform="matrix(0,1.1061053,-1.1061053,0,30.90695,6.9192688)">
      <path
         id="path15"
         style="fill:none;fill-opacity:1;stroke:#484a46;stroke-width:2.50535;stroke-linecap:round;stroke-linejoin:round;stroke-dasharray:none;stroke-opacity:1;paint-order:markers fill stroke"
         inkscape:transform-center-y="-5.1009491"
         d="m 2.1170622,15.534416 4.6202056,2.569746 3.5322312,1.964248 a 0.72547507,0.69885184 0 0 0 1.087974,-0.605498 v -3.928496 -3.928494 a 0.72547507,0.69885184 0 0 0 -1.087974,-0.605499 l -3.5322312,1.964248 z" />
      <path
         id="path16"
         style="fill:#fbfcfd;fill-opacity:1;stroke:none;stroke-width:0.223675;stroke-linecap:round;stroke-linejoin:round;paint-order:markers fill stroke"
         inkscape:transform-center-y="-5.1009491"
         d="m 2.1170622,15.534416 4.6202056,2.569746 3.5322312,1.964248 a 0.72547507,0.69885184 0 0 0 1.087974,-0.605498 v -3.928496 -3.928494 a 0.72547507,0.69885184 0 0 0 -1.087974,-0.605499 l -3.5322312,1.964248 z" />
      <g
         id="g18"
         transform="matrix(0,-0.24722093,0.30192026,0,8.088243,29.871299)">
        <path
           id="path17"
           style="opacity:1;fill:#fbfcfd;fill-opacity:1;stroke:none;stroke-width:0.888;stroke-linecap:round;stroke-linejoin:round;paint-order:markers fill stroke"
           inkscape:transform-center-y="-5.1009491"
           d="M 57.992188,-25.177338 V 10.828148 H 73.882812 A 2.8268312,2.8268312 0 0 0 76.332031,6.5888296 L 68.386719,-7.1745949 Z"
           transform="matrix(1,0,0,0.85002237,0,1.6239568)" />
        <path
           id="path18"
           style="opacity:1;fill:#d2e3eb;fill-opacity:1;stroke:none;stroke-width:0.818706;stroke-linecap:round;stroke-linejoin:round;paint-order:markers fill stroke"
           inkscape:transform-center-y="-5.1009492"
           d="M 57.992188,-19.777344 V 10.828125 H 42.101564 A 2.8268312,2.4028698 0 0 1 39.652345,7.2246094 l 7.945312,-11.6992188 z" />
      </g>
    </g>
  </g>
  <g
     id="g23"
     transform="matrix(-0.66098471,0,0,0.66098471,26.610865,30.195683)">
    <path
       id="path19"
       style="fill:none;fill-opacity:1;stroke:#484a46;stroke-width:2.50535;stroke-linecap:round;stroke-linejoin:round;stroke-dasharray:none;stroke-opacity:1;paint-order:markers fill stroke"
       inkscape:transform-center-y="-5.1009491"
       d="m 2.1170622,15.534416 4.6202056,2.569746 3.5322312,1.964248 a 0.72547507,0.69885184 0 0 0 1.087974,-0.605498 v -3.928496 -3.928494 a 0.72547507,0.69885184 0 0 0 -1.087974,-0.605499 l -3.5322312,1.964248 z" />
    <path
       id="path20"
       style="fill:#fbfcfd;fill-opacity:1;stroke:none;stroke-width:0.223675;stroke-linecap:round;stroke-linejoin:round;paint-order:markers fill stroke"
       inkscape:transform-center-y="-5.1009491"
       d="m 2.1170622,15.534416 4.6202056,2.569746 3.5322312,1.964248 a 0.72547507,0.69885184 0 0 0 1.087974,-0.605498 v -3.928496 -3.928494 a 0.72547507,0.69885184 0 0 0 -1.087974,-0.605499 l -3.5322312,1.964248 z" />
    <g
       id="g22"
       transform="matrix(0,-0.24722093,0.30192026,0,8.088243,29.871299)">
      <path
         id="path21"
         style="opacity:1;fill:#fbfcfd;fill-opacity:1;stroke:none;stroke-width:0.888;stroke-linecap:round;stroke-linejoin:round;paint-order:markers fill stroke"
         inkscape:transform-center-y="-5.1009491"
         d="M 57.992188,-25.177338 V 10.828148 H 73.882812 A 2.8268312,2.8268312 0 0 0 76.332031,6.5888296 L 68.386719,-7.1745949 Z"
         transform="matrix(1,0,0,0.85002237,0,1.6239568)" />
      <path
         id="path22"
         style="opacity:1;fill:#d2e3eb;fill-opacity:1;stroke:none;stroke-width:0.818706;stroke-linecap:round;stroke-linejoin:round;paint-order:markers fill stroke"
         inkscape:transform-center-y="-5.1009492"
         d="M 57.992188,-19.777344 V 10.828125 H 42.101564 A 2.8268312,2.4028698 0 0 1 39.652345,7.2246094 l 7.945312,-11.6992188 z" />
    </g>
  </g>
  <rect
     style="fill:none;fill-opacity:1;stroke:#484a46;stroke-width:1.80549;stroke-linecap:round;stroke-linejoin:round;stroke-dasharray:none;stroke-opacity:1;paint-order:markers fill stroke"
     id="rect29"
     width="12.977928"
     height="2.9200337"
     x="-2.5131974"
     y="44.503635"
     ry="0.66531658"
     transform="rotate(-90)" />
  <g
     id="g25"
     transform="translate(-22,1.298828)">
    <path
       id="path24"
       style="fill:none;fill-opacity:1;stroke:#484a46;stroke-width:1.656;stroke-linecap:round;stroke-linejoin:round;stroke-dasharray:none;stroke-opacity:1;paint-order:markers fill stroke"
       d="m -16.017578,-13.894531 a 2.1052184,2.105 0 0 0 1.070312,-0.283203 A 2.1052184,2.105 0 0 0 -13.894531,-16 H -16 -18.105469 a 2.1052184,2.105 0 0 0 1.052735,1.822266 2.1052184,2.105 0 0 0 1.035156,0.283203 z"
       transform="scale(-1)" />
    <path
       id="circle5"
       style="fill:#fbfcfd;fill-opacity:1;stroke:none;stroke-width:0.242606;stroke-linecap:round;stroke-linejoin:round;paint-order:markers fill stroke"
       d="m -16.017578,-13.894531 a 2.1052184,2.105 0 0 0 1.070312,-0.283203 A 2.1052184,2.105 0 0 0 -13.894531,-16 H -16 -18.105469 a 2.1052184,2.105 0 0 0 1.052735,1.822266 2.1052184,2.105 0 0 0 1.035156,0.283203 z"
       transform="scale(-1)" />
    <path
       id="path25"
       style="fill:#d2e3eb;fill-opacity:1;stroke:none;stroke-width:0.242606;stroke-linecap:round;stroke-linejoin:round;paint-order:markers fill stroke"
       d="M 16.017578,13.894531 A 2.1052184,2.105 0 0 0 14.947266,14.177734 2.1052184,2.105 0 0 0 13.894531,16 H 16 16.01758 Z" />
  </g>
  <g
     id="g28"
     transform="matrix(1,0,0,-1,-22.412451,37.570412)">
    <path
       id="path26"
       style="fill:none;fill-opacity:1;stroke:#484a46;stroke-width:1.656;stroke-linecap:round;stroke-linejoin:round;stroke-dasharray:none;stroke-opacity:1;paint-order:markers fill stroke"
       d="m -16.017578,-13.894531 a 2.1052184,2.105 0 0 0 1.070312,-0.283203 A 2.1052184,2.105 0 0 0 -13.894531,-16 H -16 -18.105469 a 2.1052184,2.105 0 0 0 1.052735,1.822266 2.1052184,2.105 0 0 0 1.035156,0.283203 z"
       transform="scale(-1)" />
    <path
       id="path27"
       style="fill:#fbfcfd;fill-opacity:1;stroke:none;stroke-width:0.242606;stroke-linecap:round;stroke-linejoin:round;paint-order:markers fill stroke"
       d="m -16.017578,-13.894531 a 2.1052184,2.105 0 0 0 1.070312,-0.283203 A 2.1052184,2.105 0 0 0 -13.894531,-16 H -16 -18.105469 a 2.1052184,2.105 0 0 0 1.052735,1.822266 2.1052184,2.105 0 0 0 1.035156,0.283203 z"
       transform="scale(-1)" />
    <path
       id="path28"
       style="fill:#d2e3eb;fill-opacity:1;stroke:none;stroke-width:0.242606;stroke-linecap:round;stroke-linejoin:round;paint-order:markers fill stroke"
       d="M 16.017578,13.894531 A 2.1052184,2.105 0 0 0 14.947266,14.177734 2.1052184,2.105 0 0 0 13.894531,16 H 16 16.01758 Z" />
  </g>
  <rect
     style="fill:none;fill-opacity:1;stroke:#484a46;stroke-width:1.80549;stroke-linecap:round;stroke-linejoin:round;stroke-dasharray:none;stroke-opacity:1;paint-order:markers fill stroke"
     id="rect35"
     width="12.977928"
     height="2.9200337"
     x="39.474686"
     y="-5.4357829"
     ry="0.66531658" />
  <rect
     style="fill:#fbfcfd;fill-opacity:1;stroke:none;stroke-width:1.38999;stroke-linecap:round;stroke-linejoin:round;stroke-dasharray:none;stroke-opacity:1;paint-order:markers fill stroke"
     id="rect28"
     width="12.977928"
     height="2.9200337"
     x="-2.5131974"
     y="44.503635"
     ry="0.66531658"
     transform="rotate(-90)" />
  <rect
     style="fill:#fbfcfd;fill-opacity:1;stroke:none;stroke-width:1.38999;stroke-linecap:round;stroke-linejoin:round;stroke-dasharray:none;stroke-opacity:1;paint-order:markers fill stroke"
     id="rect36"
     width="12.977928"
     height="2.9200337"
     x="39.474686"
     y="-5.4357829"
     ry="0.66531658" />
  <path
     id="rect30"
     style="fill:#d2e3eb;fill-opacity:1;stroke:none;stroke-width:1.38999;stroke-linecap:round;stroke-linejoin:round;stroke-dasharray:none;stroke-opacity:1;paint-order:markers fill stroke"
     d="m 44.503633,-3.9980716 v 5.84615 c 0,0.368585 0.296533,0.665119 0.665119,0.665119 h 0.817203 v -6.511269 z" />
  <path
     id="path36"
     style="fill:#d2e3eb;fill-opacity:1;stroke:none;stroke-width:1.38999;stroke-linecap:round;stroke-linejoin:round;stroke-dasharray:none;stroke-opacity:1;paint-order:markers fill stroke"
     d="m 40.140441,-5.4349106 c -0.368585,0 -0.665119,0.296533 -0.665119,0.665119 v 1.587769 c 0,0.368585 0.296534,0.667146 0.665119,0.667146 h 5.846151 v -2.920034 z" />
  <path
     id="path37"
     style="fill:#d2e3eb;fill-opacity:1;stroke:none;stroke-width:1.38999;stroke-linecap:round;stroke-linejoin:round;stroke-dasharray:none;stroke-opacity:1;paint-order:markers fill stroke"
     d="m 44.503633,-3.9534616 v -5.84615 c 0,-0.3685854 0.296533,-0.6651194 0.665119,-0.6651194 h 0.817203 v 6.5112694 z" />
  <circle
     style="fill:#fbfcfd;fill-opacity:1;stroke:#484a46;stroke-width:1.03468;stroke-linecap:round;stroke-linejoin:round;stroke-dasharray:none;stroke-opacity:1;paint-order:markers fill stroke"
     id="path43"
     cx="-8.6596413"
     cy="-11.148155"
     r="4.7331214" />
  <path
     id="circle43"
     style="fill:none;fill-opacity:1;stroke:#484a46;stroke-width:4;stroke-linecap:round;stroke-linejoin:round;stroke-dasharray:none;stroke-opacity:1;paint-order:markers fill stroke"
     d="m 15.998695,7.7867396 a 8.2133443,8.2133443 0 0 0 -8.2119552,8.2119534 8.2133443,8.2133443 0 0 0 8.2119552,8.214568 8.2133443,8.2133443 0 0 0 8.214566,-8.214568 8.2133443,8.2133443 0 0 0 -8.214566,-8.2119534 z m 0,4.3044844 a 3.9088594,3.9088594 0 0 1 3.910081,3.907469 3.9088594,3.9088594 0 0 1 -3.910081,3.910081 3.9088594,3.9088594 0 0 1 -3.90747,-3.910081 3.9088594,3.9088594 0 0 1 3.90747,-3.907469 z" />
  <path
     id="path4"
     style="fill:#d2e3eb;fill-opacity:1;stroke:none;stroke-width:1.79547;stroke-linecap:round;stroke-linejoin:round;stroke-dasharray:none;stroke-opacity:1;paint-order:markers fill stroke"
     d="m 15.998695,7.7867396 a 8.2133443,8.2133443 0 0 0 -8.2119552,8.2119534 8.2133443,8.2133443 0 0 0 8.2119552,8.214568 8.2133443,8.2133443 0 0 0 8.214566,-8.214568 8.2133443,8.2133443 0 0 0 -8.214566,-8.2119534 z m 0,4.3044844 a 3.9088594,3.9088594 0 0 1 3.910081,3.907469 3.9088594,3.9088594 0 0 1 -3.910081,3.910081 3.9088594,3.9088594 0 0 1 -3.90747,-3.910081 3.9088594,3.9088594 0 0 1 3.90747,-3.907469 z" />
  <path
     id="circle44"
     style="fill:#fbfcfd;fill-opacity:1;stroke:none;stroke-width:2;stroke-linecap:round;stroke-linejoin:round;stroke-dasharray:none;stroke-opacity:1;paint-order:markers fill stroke"
     d="m 15.998695,10.294206 a 5.7058774,5.7058774 0 0 0 -5.704488,5.704487 5.7058774,5.7058774 0 0 0 5.704488,5.707101 5.7058774,5.7058774 0 0 0 5.707099,-5.707101 5.7058774,5.7058774 0 0 0 -5.707099,-5.704487 z m 0,1.797018 a 3.9088594,3.9088594 0 0 1 3.910081,3.907469 3.9088594,3.9088594 0 0 1 -3.910081,3.910081 3.9088594,3.9088594 0 0 1 -3.90747,-3.910081 3.9088594,3.9088594 0 0 1 3.90747,-3.907469 z" />
</svg>
