<?xml version="1.0" encoding="UTF-8" standalone="no"?>
<svg
   id="svg11024"
   height="32"
   width="32"
   version="1.1"
   sodipodi:docname="wait-09.svg"
   inkscape:version="1.4.3 (0d15f75042, 2025-12-25)"
   xmlns:inkscape="http://www.inkscape.org/namespaces/inkscape"
   xmlns:sodipodi="http://sodipodi.sourceforge.net/DTD/sodipodi-0.dtd"
   xmlns="http://www.w3.org/2000/svg"
   xmlns:svg="http://www.w3.org/2000/svg">
  <defs
     id="defs1">
    <inkscape:path-effect
       effect="fillet_chamfer"
       id="path-effect1"
       is_visible="true"
       lpeversion="1"
       nodesatellites_param="F,0,0,1,0,4.8962148,0,1 @ F,0,0,1,0,0,0,1 @ F,0,0,1,0,0,0,1 @ F,0,0,1,0,0,0,1 @ F,0,0,1,0,0,0,1 @ F,0,0,1,0,0,0,1"
       radius="0"
       unit="px"
       method="auto"
       mode="F"
       chamfer_steps="1"
       flexible="false"
       use_knot_distance="true"
       apply_no_radius="true"
       apply_with_radius="true"
       only_selected="false"
       hide_knots="false" />
  </defs>
  <sodipodi:namedview
     id="namedview1"
     pagecolor="#ffffff"
     bordercolor="#999999"
     borderopacity="1"
     inkscape:showpageshadow="2"
     inkscape:pageopacity="0"
     inkscape:pagecheckerboard="0"
     inkscape:deskcolor="#d1d1d1"
     inkscape:zoom="11.313708"
     inkscape:cx="26.339728"
     inkscape:cy="14.893437"
     inkscape:window-width="1906"
     inkscape:window-height="1027"
     inkscape:window-x="0"
     inkscape:window-y="0"
     inkscape:window-maximized="1"
     inkscape:current-layer="svg11024" />
  <filter
     id="filter7078"
     color-interpolation-filters="sRGB"
     x="-0.11785656"
     y="-0.078292553"
     width="1.2357131"
     height="1.1565851">
    <feGaussianBlur
       id="feGaussianBlur7080"
       stdDeviation=".657" />
  </filter>
  <g
     id="g8"
     transform="matrix(0.4068344,-0.23488595,0.28685607,0.4968493,-13.919966,27.32091)"
     sodipodi:insensitive="true"
     style="display:none">
    <circle
       style="opacity:1;fill:none;fill-opacity:1;stroke:#484a46;stroke-width:4.188;stroke-linecap:round;stroke-linejoin:round;stroke-dasharray:none;stroke-opacity:1;paint-order:markers fill stroke"
       id="circle6"
       cx="57.992188"
       cy="10.828125"
       r="6.9727626" />
    <circle
       style="opacity:1;fill:#d2e3eb;fill-opacity:1;stroke:none;stroke-width:0.888;stroke-linecap:round;stroke-linejoin:round;paint-order:markers fill stroke"
       id="path3"
       cx="57.992188"
       cy="10.828125"
       r="6.9727626" />
    <path
       style="opacity:1;fill:#fbfcfd;fill-opacity:1;stroke:none;stroke-width:0.888;stroke-linecap:round;stroke-linejoin:round;paint-order:markers fill stroke"
       id="circle5"
       sodipodi:type="arc"
       sodipodi:cx="-10.828125"
       sodipodi:cy="57.992188"
       sodipodi:rx="6.9727626"
       sodipodi:ry="6.9727626"
       sodipodi:start="0"
       sodipodi:end="3.1415927"
       sodipodi:arc-type="slice"
       d="m -3.8553624,57.992187 a 6.9727626,6.9727626 0 0 1 -3.4863814,6.03859 6.9727626,6.9727626 0 0 1 -6.9727622,0 6.9727626,6.9727626 0 0 1 -3.486382,-6.03859 h 6.972763 z"
       transform="rotate(-90)" />
    <path
       id="path7"
       style="fill:none;fill-opacity:1;stroke:#484a46;stroke-width:4.188;stroke-linecap:round;stroke-linejoin:round;stroke-dasharray:none;stroke-opacity:1;paint-order:markers fill stroke"
       inkscape:transform-center-y="-5.1009491"
       d="M 57.992188,-19.777344 47.597656,-4.4746094 39.652344,7.2246094 a 2.8268312,2.4028698 0 0 0 2.449218,3.6035156 H 57.992188 73.882812 A 2.8268312,2.4028698 0 0 0 76.332031,7.2246094 L 68.386719,-4.4746094 Z" />
    <path
       id="path6"
       style="fill:#fbfcfd;fill-opacity:1;stroke:none;stroke-width:0.818706;stroke-linecap:round;stroke-linejoin:round;paint-order:markers fill stroke"
       inkscape:transform-center-y="-5.1009491"
       d="M 57.992188,-19.777344 47.597656,-4.4746094 39.652344,7.2246094 a 2.8268312,2.4028698 0 0 0 2.449218,3.6035156 H 57.992188 73.882812 A 2.8268312,2.4028698 0 0 0 76.332031,7.2246094 L 68.386719,-4.4746094 Z" />
    <g
       id="g3">
      <path
         id="path1"
         style="opacity:1;fill:#fbfcfd;fill-opacity:1;stroke:none;stroke-width:0.888;stroke-linecap:round;stroke-linejoin:round;paint-order:markers fill stroke"
         inkscape:transform-center-y="-5.1009491"
         d="M 57.992188,-25.177338 V 10.828148 H 73.882812 A 2.8268312,2.8268312 0 0 0 76.332031,6.5888296 L 68.386719,-7.1745949 Z"
         transform="matrix(1,0,0,0.85002237,0,1.6239568)" />
      <path
         id="path2"
         style="opacity:1;fill:#d2e3eb;fill-opacity:1;stroke:none;stroke-width:0.818706;stroke-linecap:round;stroke-linejoin:round;paint-order:markers fill stroke"
         inkscape:transform-center-y="-5.1009492"
         d="M 57.992188,-19.777344 V 10.828125 H 42.101564 A 2.8268312,2.4028698 0 0 1 39.652345,7.2246094 l 7.945312,-11.6992188 z" />
    </g>
  </g>
  <path
     id="hotspot"
     d="M 4,4 H 5 V 5 H 4 Z"
     display="none"
     fill="#333333" />
  <g
     id="g1"
     transform="rotate(120,15.718835,15.513006)">
    <path
       style="fill:none;fill-opacity:1;stroke:#484a46;stroke-width:3.5;stroke-linecap:round;stroke-linejoin:round;stroke-dasharray:none;stroke-opacity:1;paint-order:markers fill stroke"
       id="path17"
       sodipodi:type="arc"
       sodipodi:cx="15.979482"
       sodipodi:cy="7.9756846"
       sodipodi:rx="5.3310399"
       sodipodi:ry="5.3310399"
       sodipodi:start="0"
       sodipodi:end="3.1415927"
       sodipodi:arc-type="slice"
       d="m 21.310522,7.9756846 a 5.3310399,5.3310399 0 0 1 -2.66552,4.6168164 5.3310399,5.3310399 0 0 1 -5.33104,0 5.3310399,5.3310399 0 0 1 -2.66552,-4.6168164 h 5.33104 z" />
    <path
       style="fill:none;fill-opacity:1;stroke:#484a46;stroke-width:3.5;stroke-linecap:round;stroke-linejoin:round;stroke-dasharray:none;stroke-opacity:1;paint-order:markers fill stroke"
       id="path18"
       sodipodi:type="arc"
       sodipodi:cx="15.979482"
       sodipodi:cy="-22.13566"
       sodipodi:rx="5.3310399"
       sodipodi:ry="5.3310399"
       sodipodi:start="0"
       sodipodi:end="3.1415927"
       sodipodi:arc-type="slice"
       d="m 21.310522,-22.13566 a 5.3310399,5.3310399 0 0 1 -2.66552,4.616816 5.3310399,5.3310399 0 0 1 -5.33104,0 5.3310399,5.3310399 0 0 1 -2.66552,-4.616816 h 5.33104 z"
       transform="scale(1,-1)" />
    <g
       id="g22"
       transform="matrix(1.0338987,0,0,1.0338987,-10.024094,-13.420595)"
       style="stroke-width:3.86885;stroke-dasharray:none">
      <rect
         style="opacity:1;fill:#fbfcfd;fill-opacity:1;stroke:#484a46;stroke-width:3.86885;stroke-linecap:round;stroke-linejoin:round;stroke-dasharray:none;stroke-opacity:1;paint-order:markers fill stroke"
         id="rect21"
         width="15.733126"
         height="2.2980971"
         x="17.324116"
         y="17.589281"
         ry="1.1490486" />
      <rect
         style="opacity:1;fill:#fbfcfd;fill-opacity:1;stroke:none;stroke-width:3.86885;stroke-linecap:round;stroke-linejoin:round;stroke-dasharray:none;stroke-opacity:1;paint-order:markers fill stroke"
         id="rect20"
         width="15.733126"
         height="2.2980971"
         x="17.324116"
         y="17.589281"
         ry="1.1490486" />
    </g>
    <path
       style="fill:#fbfcfd;fill-opacity:1;stroke:none;stroke-width:1.55084;stroke-linecap:round;stroke-linejoin:round;stroke-dasharray:none;stroke-opacity:1;paint-order:markers fill stroke"
       id="path19"
       sodipodi:type="arc"
       sodipodi:cx="15.979482"
       sodipodi:cy="7.9756846"
       sodipodi:rx="5.3310399"
       sodipodi:ry="5.3310399"
       sodipodi:start="0"
       sodipodi:end="3.1415927"
       sodipodi:arc-type="slice"
       d="m 21.310522,7.9756846 a 5.3310399,5.3310399 0 0 1 -2.66552,4.6168164 5.3310399,5.3310399 0 0 1 -5.33104,0 5.3310399,5.3310399 0 0 1 -2.66552,-4.6168164 h 5.33104 z" />
    <g
       id="g23"
       transform="matrix(1.0338987,0,0,1.0338987,-10.065124,4.7255482)"
       style="stroke-width:3.86885;stroke-dasharray:none">
      <rect
         style="opacity:1;fill:#fbfcfd;fill-opacity:1;stroke:#484a46;stroke-width:3.86885;stroke-linecap:round;stroke-linejoin:round;stroke-dasharray:none;stroke-opacity:1;paint-order:markers fill stroke"
         id="rect22"
         width="15.733126"
         height="2.2980971"
         x="17.324116"
         y="17.589281"
         ry="1.1490486" />
      <rect
         style="opacity:1;fill:#fbfcfd;fill-opacity:1;stroke:none;stroke-width:3.86885;stroke-linecap:round;stroke-linejoin:round;stroke-dasharray:none;stroke-opacity:1;paint-order:markers fill stroke"
         id="rect23"
         width="15.733126"
         height="2.2980971"
         x="17.324116"
         y="17.589281"
         ry="1.1490486" />
    </g>
    <path
       style="fill:#fbfcfd;fill-opacity:1;stroke:none;stroke-width:1.55084;stroke-linecap:round;stroke-linejoin:round;stroke-dasharray:none;stroke-opacity:1;paint-order:markers fill stroke"
       id="path20"
       sodipodi:type="arc"
       sodipodi:cx="15.979482"
       sodipodi:cy="-22.13566"
       sodipodi:rx="5.3310399"
       sodipodi:ry="5.3310399"
       sodipodi:start="0"
       sodipodi:end="3.1415927"
       sodipodi:arc-type="slice"
       d="m 21.310522,-22.13566 a 5.3310399,5.3310399 0 0 1 -2.66552,4.616816 5.3310399,5.3310399 0 0 1 -5.33104,0 5.3310399,5.3310399 0 0 1 -2.66552,-4.616816 h 5.33104 z"
       transform="scale(1,-1)" />
    <path
       id="path24"
       style="fill:#d2e3eb;fill-opacity:1;stroke:none;stroke-width:1.55084;stroke-linecap:round;stroke-linejoin:round;stroke-dasharray:none;stroke-opacity:1;paint-order:markers fill stroke"
       d="M 15.978425,13.306311 A 5.3310401,5.3310401 0 0 1 13.313112,12.592386 5.3310401,5.3310401 0 0 1 10.647799,7.9756841 h 5.330626 z" />
    <path
       id="path23"
       style="fill:#d2e3eb;fill-opacity:1;stroke:none;stroke-width:1.55084;stroke-linecap:round;stroke-linejoin:round;stroke-dasharray:none;stroke-opacity:1;paint-order:markers fill stroke"
       d="m 15.978425,16.805301 a 5.3310401,5.3310401 0 0 0 -2.665313,0.713925 5.3310401,5.3310401 0 0 0 -2.665313,4.616702 h 5.330626 z" />
  </g>
</svg>
