<?xml version="1.0" encoding="UTF-8" standalone="no"?>
<svg
   id="svg11024"
   height="32"
   width="32"
   version="1.1"
   sodipodi:docname="top_left_corner.svg"
   inkscape:version="1.4.3 (0d15f75042, 2025-12-25)"
   xmlns:inkscape="http://www.inkscape.org/namespaces/inkscape"
   xmlns:sodipodi="http://sodipodi.sourceforge.net/DTD/sodipodi-0.dtd"
   xmlns="http://www.w3.org/2000/svg"
   xmlns:svg="http://www.w3.org/2000/svg">
  <defs
     id="defs1">
    <inkscape:path-effect
       effect="powerstroke"
       message=""
       id="path-effect24"
       is_visible="true"
       lpeversion="1.3"
       scale_width="1"
       interpolator_type="CubicBezierJohan"
       interpolator_beta="0.2"
       start_linecap_type="zerowidth"
       end_linecap_type="zerowidth"
       offset_points="6,4.9921368"
       linejoin_type="extrp_arc"
       miter_limit="4"
       not_jump="false"
       sort_points="true" />
    <inkscape:path-effect
       effect="fillet_chamfer"
       id="path-effect1"
       is_visible="true"
       lpeversion="1"
       nodesatellites_param="F,0,0,1,0,4.8962148,0,1 @ F,0,0,1,0,0,0,1 @ F,0,0,1,0,0,0,1 @ F,0,0,1,0,0,0,1 @ F,0,0,1,0,0,0,1 @ F,0,0,1,0,0,0,1"
       radius="0"
       unit="px"
       method="auto"
       mode="F"
       chamfer_steps="1"
       flexible="false"
       use_knot_distance="true"
       apply_no_radius="true"
       apply_with_radius="true"
       only_selected="false"
       hide_knots="false" />
  </defs>
  <sodipodi:namedview
     id="namedview1"
     pagecolor="#ffffff"
     bordercolor="#999999"
     borderopacity="1"
     inkscape:showpageshadow="2"
     inkscape:pageopacity="0"
     inkscape:pagecheckerboard="0"
     inkscape:deskcolor="#d1d1d1"
     inkscape:zoom="11.313708"
     inkscape:cx="8.9272231"
     inkscape:cy="19.931572"
     inkscape:window-width="1906"
     inkscape:window-height="1027"
     inkscape:window-x="0"
     inkscape:window-y="0"
     inkscape:window-maximized="1"
     inkscape:current-layer="svg11024" />
  <filter
     id="filter7078"
     color-interpolation-filters="sRGB"
     x="-0.11785656"
     y="-0.078292553"
     width="1.2357131"
     height="1.1565851">
    <feGaussianBlur
       id="feGaussianBlur7080"
       stdDeviation=".657" />
  </filter>
  <g
     id="g1"
     transform="matrix(1,0,0,-1,1.0972557,33.097256)">
    <path
       id="path19"
       style="fill:none;fill-opacity:1;stroke:#484a46;stroke-width:4;stroke-linecap:round;stroke-linejoin:round;stroke-dasharray:none;stroke-opacity:1;paint-order:markers fill stroke"
       inkscape:transform-center-y="-5.1009491"
       d="m 8.3074178,23.611543 4.2811892,-1.220927 3.272828,-0.933641 a 0.58848934,0.61090823 45 0 0 0.287285,-1.008362 l -2.339186,-2.339186 -2.339185,-2.339185 a 0.58848934,0.61090823 45 0 0 -1.008363,0.287285 l -0.9336406,3.272827 z" />
    <path
       id="path20"
       style="fill:#fbfcfd;fill-opacity:1;stroke:none;stroke-width:0.188352;stroke-linecap:round;stroke-linejoin:round;paint-order:markers fill stroke"
       inkscape:transform-center-y="-5.1009491"
       d="m 8.3074178,23.611543 4.2811892,-1.220927 3.272828,-0.933641 a 0.58848934,0.61090823 45 0 0 0.287285,-1.008362 l -2.339186,-2.339186 -2.339185,-2.339185 a 0.58848934,0.61090823 45 0 0 -1.008363,0.287285 l -0.9336406,3.272827 z" />
    <g
       id="g22"
       transform="matrix(-0.14720539,-0.14720539,0.1797756,-0.1797756,20.399665,28.592822)">
      <path
         id="path21"
         style="opacity:1;fill:#fbfcfd;fill-opacity:1;stroke:none;stroke-width:0.888;stroke-linecap:round;stroke-linejoin:round;paint-order:markers fill stroke"
         inkscape:transform-center-y="-5.1009491"
         d="M 57.992188,-25.177338 V 10.828148 H 73.882812 A 2.8268312,2.8268312 0 0 0 76.332031,6.5888296 L 68.386719,-7.1745949 Z"
         transform="matrix(1,0,0,0.85002237,0,1.6239568)" />
      <path
         id="path22"
         style="opacity:1;fill:#d2e3eb;fill-opacity:1;stroke:none;stroke-width:0.818706;stroke-linecap:round;stroke-linejoin:round;paint-order:markers fill stroke"
         inkscape:transform-center-y="-5.1009492"
         d="M 57.992188,-19.777344 V 10.828125 H 42.101564 A 2.8268312,2.4028698 0 0 1 39.652345,7.2246094 l 7.945312,-11.6992188 z" />
    </g>
    <rect
       style="fill:none;fill-opacity:1;stroke:#484a46;stroke-width:4;stroke-linecap:round;stroke-linejoin:round;stroke-dasharray:none;stroke-opacity:1;paint-order:markers fill stroke"
       id="rect29"
       width="12.977928"
       height="2.9200337"
       x="-31.097256"
       y="-3.8227792"
       ry="0.66531658"
       transform="matrix(0,-1,-1,0,0,0)" />
    <rect
       style="fill:none;fill-opacity:1;stroke:#484a46;stroke-width:4;stroke-linecap:round;stroke-linejoin:round;stroke-dasharray:none;stroke-opacity:1;paint-order:markers fill stroke"
       id="rect46"
       width="12.977928"
       height="2.9200337"
       x="-13.880672"
       y="28.177221"
       ry="0.66531658"
       transform="scale(-1,1)" />
    <rect
       style="fill:#fbfcfd;fill-opacity:1;stroke:none;stroke-width:1.38999;stroke-linecap:round;stroke-linejoin:round;stroke-dasharray:none;stroke-opacity:1;paint-order:markers fill stroke"
       id="rect28"
       width="12.977928"
       height="2.9200337"
       x="-31.097256"
       y="-3.8227792"
       ry="0.66531658"
       transform="matrix(0,-1,-1,0,0,0)" />
    <path
       id="rect30"
       style="fill:#d2e3eb;fill-opacity:1;stroke:none;stroke-width:1.38999;stroke-linecap:round;stroke-linejoin:round;stroke-dasharray:none;stroke-opacity:1;paint-order:markers fill stroke"
       d="m 3.822781,24.585986 v 5.84615 c 0,0.368585 -0.296533,0.665119 -0.665119,0.665119 H 2.340459 v -6.511269 z" />
    <path
       id="path37"
       style="fill:#d2e3eb;fill-opacity:1;stroke:none;stroke-width:1.38999;stroke-linecap:round;stroke-linejoin:round;stroke-dasharray:none;stroke-opacity:1;paint-order:markers fill stroke"
       d="m 3.822781,24.630596 v -5.84615 c 0,-0.368586 -0.296533,-0.66512 -0.665119,-0.66512 H 2.340459 v 6.51127 z" />
    <rect
       style="fill:#fbfcfd;fill-opacity:1;stroke:none;stroke-width:1.38999;stroke-linecap:round;stroke-linejoin:round;stroke-dasharray:none;stroke-opacity:1;paint-order:markers fill stroke"
       id="rect47"
       width="12.977928"
       height="2.9200337"
       x="-13.880672"
       y="28.177221"
       ry="0.66531658"
       transform="scale(-1,1)" />
    <path
       id="path47"
       style="fill:#d2e3eb;fill-opacity:1;stroke:none;stroke-width:1.38999;stroke-linecap:round;stroke-linejoin:round;stroke-dasharray:none;stroke-opacity:1;paint-order:markers fill stroke"
       d="m 7.369404,28.17722 h 5.84615 c 0.368585,0 0.665119,0.296533 0.665119,0.665119 v 0.817203 H 7.369404 Z" />
    <path
       id="path48"
       style="fill:#d2e3eb;fill-opacity:1;stroke:none;stroke-width:1.38999;stroke-linecap:round;stroke-linejoin:round;stroke-dasharray:none;stroke-opacity:1;paint-order:markers fill stroke"
       d="m 8.851729,29.659542 h -5.84615 c -0.368586,0 -0.66512,-0.296533 -0.66512,-0.665119 V 28.17722 h 6.51127 z" />
  </g>
  <path
     id="hotspot"
     d="m 3.2632717,4.1519527 v -1 h 1 v 1 z"
     display="none"
     fill="#333333" />
</svg>
