<?xml version="1.0" encoding="UTF-8" standalone="no"?>
<svg
   id="svg11024"
   height="32"
   width="32"
   version="1.1"
   sodipodi:docname="wayland-cursor.svg"
   inkscape:version="1.4.3 (0d15f75042, 2025-12-25)"
   xmlns:inkscape="http://www.inkscape.org/namespaces/inkscape"
   xmlns:sodipodi="http://sodipodi.sourceforge.net/DTD/sodipodi-0.dtd"
   xmlns="http://www.w3.org/2000/svg"
   xmlns:svg="http://www.w3.org/2000/svg">
  <defs
     id="defs1">
    <inkscape:path-effect
       effect="fillet_chamfer"
       id="path-effect1"
       is_visible="true"
       lpeversion="1"
       nodesatellites_param="F,0,0,1,0,4.8962148,0,1 @ F,0,0,1,0,0,0,1 @ F,0,0,1,0,0,0,1 @ F,0,0,1,0,0,0,1 @ F,0,0,1,0,0,0,1 @ F,0,0,1,0,0,0,1"
       radius="0"
       unit="px"
       method="auto"
       mode="F"
       chamfer_steps="1"
       flexible="false"
       use_knot_distance="true"
       apply_no_radius="true"
       apply_with_radius="true"
       only_selected="false"
       hide_knots="false" />
  </defs>
  <sodipodi:namedview
     id="namedview1"
     pagecolor="#ffffff"
     bordercolor="#999999"
     borderopacity="1"
     inkscape:showpageshadow="2"
     inkscape:pageopacity="0"
     inkscape:pagecheckerboard="0"
     inkscape:deskcolor="#d1d1d1"
     inkscape:zoom="11.313709"
     inkscape:cx="15.556349"
     inkscape:cy="26.825863"
     inkscape:window-width="1904"
     inkscape:window-height="1025"
     inkscape:window-x="0"
     inkscape:window-y="0"
     inkscape:window-maximized="1"
     inkscape:current-layer="svg11024" />
  <filter
     id="filter7078"
     color-interpolation-filters="sRGB"
     x="-0.11785656"
     y="-0.078292553"
     width="1.2357131"
     height="1.1565851">
    <feGaussianBlur
       id="feGaussianBlur7080"
       stdDeviation=".657" />
  </filter>
  <ellipse
     style="fill:none;fill-opacity:1;stroke:#484a46;stroke-width:4;stroke-linecap:round;stroke-linejoin:round;stroke-dasharray:none;stroke-opacity:1;paint-order:markers fill stroke"
     id="circle6"
     cx="1.6352787"
     cy="25.351343"
     transform="rotate(-30)"
     rx="3.2756078"
     ry="4.0003586" />
  <ellipse
     style="fill:#d2e3eb;fill-opacity:1;stroke:none;stroke-width:0.461003;stroke-linecap:round;stroke-linejoin:round;paint-order:markers fill stroke"
     id="path3"
     cx="1.6352787"
     cy="25.351343"
     transform="rotate(-30)"
     rx="3.2756078"
     ry="4.0003586" />
  <path
     style="fill:#fbfcfd;fill-opacity:1;stroke:none;stroke-width:0.461003;stroke-linecap:round;stroke-linejoin:round;paint-order:markers fill stroke"
     id="circle5"
     sodipodi:type="arc"
     sodipodi:cx="-25.351343"
     sodipodi:cy="1.6352787"
     sodipodi:rx="4.0003586"
     sodipodi:ry="3.2756078"
     sodipodi:start="0"
     sodipodi:end="3.1415927"
     sodipodi:arc-type="slice"
     d="m -21.350985,1.6352787 a 4.0003586,3.2756078 0 0 1 -2.000179,2.8367596 4.0003586,3.2756078 0 0 1 -4.000359,-1e-7 4.0003586,3.2756078 0 0 1 -2.000179,-2.8367595 h 4.000359 z"
     transform="rotate(-120)" />
  <path
     id="path7"
     style="fill:none;fill-opacity:1;stroke:#484a46;stroke-width:4;stroke-linecap:round;stroke-linejoin:round;stroke-dasharray:none;stroke-opacity:1;paint-order:markers fill stroke"
     inkscape:transform-center-y="-5.1009491"
     d="M 3.9999998,3.8730003 4.160829,13.917683 4.2843946,21.596674 a 1.3785556,1.3279659 60.000008 0 0 2.0301165,1.215117 l 6.4648529,-3.732485 6.464853,-3.732484 a 1.3785556,1.3279659 60.000008 0 0 -0.03726,-2.365691 L 12.618535,9.034624 Z" />
  <path
     id="path6"
     style="fill:#fbfcfd;fill-opacity:1;stroke:none;stroke-width:0.425029;stroke-linecap:round;stroke-linejoin:round;paint-order:markers fill stroke"
     inkscape:transform-center-y="-5.1009491"
     d="M 3.9999998,3.8730003 4.160829,13.917683 4.2843946,21.596674 a 1.3785556,1.3279659 60.000008 0 0 2.0301165,1.215117 l 6.4648529,-3.732485 6.464853,-3.732484 a 1.3785556,1.3279659 60.000008 0 0 -0.03726,-2.365691 L 12.618535,9.034624 Z" />
  <g
     id="g3"
     transform="matrix(0.4068344,-0.23488595,0.28685607,0.4968493,-13.919966,27.32091)">
    <path
       id="path1"
       style="opacity:1;fill:#fbfcfd;fill-opacity:1;stroke:none;stroke-width:0.888;stroke-linecap:round;stroke-linejoin:round;paint-order:markers fill stroke"
       inkscape:transform-center-y="-5.1009491"
       d="M 57.992188,-25.177338 V 10.828148 H 73.882812 A 2.8268312,2.8268312 0 0 0 76.332031,6.5888296 L 68.386719,-7.1745949 Z"
       transform="matrix(1,0,0,0.85002237,0,1.6239568)" />
    <path
       id="path2"
       style="opacity:1;fill:#d2e3eb;fill-opacity:1;stroke:none;stroke-width:0.818706;stroke-linecap:round;stroke-linejoin:round;paint-order:markers fill stroke"
       inkscape:transform-center-y="-5.1009492"
       d="M 57.992188,-19.777344 V 10.828125 H 42.101564 A 2.8268312,2.4028698 0 0 1 39.652345,7.2246094 l 7.945312,-11.6992188 z" />
  </g>
  <path
     id="hotspot"
     d="M 4,4 H 5 V 5 H 4 Z"
     display="none"
     fill="#333333" />
  <circle
     style="fill:none;stroke:#484a46;stroke-width:3.5;stroke-linecap:round;stroke-linejoin:round;stroke-dasharray:none;stroke-opacity:1;paint-order:markers fill stroke"
     id="path4"
     cx="23.821747"
     cy="23.697733"
     r="6.1574116" />
  <circle
     style="fill:#fdf6be;fill-opacity:1;stroke:none;stroke-width:1.954;stroke-linecap:round;stroke-linejoin:round;stroke-dasharray:none;stroke-opacity:1;paint-order:markers fill stroke"
     id="circle4"
     cx="23.821747"
     cy="23.697733"
     r="6.1574116" />
  <path
     style="fill:#c7b780;fill-opacity:1;stroke:none;stroke-width:1.954;stroke-linecap:round;stroke-linejoin:round;stroke-dasharray:none;stroke-opacity:1;paint-order:markers fill stroke"
     id="circle7"
     sodipodi:type="arc"
     sodipodi:cx="23.697733"
     sodipodi:cy="-23.821747"
     sodipodi:rx="6.1574116"
     sodipodi:ry="6.1574116"
     sodipodi:start="0"
     sodipodi:end="3.1415927"
     sodipodi:arc-type="slice"
     d="m 29.855145,-23.821747 a 6.1574116,6.1574116 0 0 1 -3.078706,5.332475 6.1574116,6.1574116 0 0 1 -6.157412,0 6.1574116,6.1574116 0 0 1 -3.078706,-5.332475 h 6.157412 z"
     transform="rotate(90)" />
  <rect
     style="fill:#484a46;fill-opacity:1;stroke:#484a46;stroke-width:0.961;stroke-linecap:round;stroke-linejoin:round;stroke-dasharray:none;stroke-opacity:1;paint-order:markers fill stroke"
     id="rect1"
     width="1.2825021"
     height="4.7587576"
     x="31.75963"
     y="-9.3969297"
     ry="0.64125103"
     transform="rotate(60)"
     inkscape:transform-center-x="1.5303122"
     inkscape:transform-center-y="0.87497085" />
  <rect
     style="fill:#484a46;fill-opacity:1;stroke:#484a46;stroke-width:0.961;stroke-linecap:round;stroke-linejoin:round;stroke-dasharray:none;stroke-opacity:1;paint-order:markers fill stroke"
     id="rect2"
     width="1.2825021"
     height="4.7587576"
     x="-21.409048"
     y="21.30331"
     ry="0.64125103"
     transform="scale(-1,1)"
     inkscape:transform-center-x="3.0403333"
     inkscape:transform-center-y="0.0064491092" />
  <rect
     style="fill:#484a46;fill-opacity:1;stroke:#484a46;stroke-width:0.961;stroke-linecap:round;stroke-linejoin:round;stroke-dasharray:none;stroke-opacity:1;paint-order:markers fill stroke"
     id="rect3"
     width="1.2825021"
     height="4.7587576"
     x="7.9835563"
     y="31.807905"
     ry="0.64125103"
     transform="matrix(-0.5,0.8660254,0.8660254,0.5,0,0)" />
  <rect
     style="fill:#484a46;fill-opacity:1;stroke:#484a46;stroke-width:0.961;stroke-linecap:round;stroke-linejoin:round;stroke-dasharray:none;stroke-opacity:1;paint-order:markers fill stroke"
     id="rect6"
     width="1.2825021"
     height="4.7587576"
     x="26.221918"
     y="21.311956"
     ry="0.64125103" />
</svg>
